<svg xmlns="http://www.w3.org/2000/svg" viewBox="0 0 800 360">
  <defs>
    <linearGradient id="g3" x1="0" y1="0" x2="1" y2="1">
      <stop offset="0%" stop-color="#2d131f"/>
      <stop offset="100%" stop-color="#190e29"/>
    </linearGradient>
  </defs>
  <rect width="800" height="360" rx="24" fill="url(#g3)"/>
  <!-- Original User Card -->
  <rect x="100" y="100" width="260" height="190" rx="16" fill="#1f1124" stroke="#10b981" stroke-width="3"/>
  <circle cx="230" cy="150" r="30" fill="#10b981"/>
  <text x="230" y="160" text-anchor="middle" fill="#ffffff" font-family="Arial" font-size="28" font-weight="bold">✓</text>
  <text x="230" y="210" text-anchor="middle" fill="#e2e8f0" font-family="Arial" font-size="16" font-weight="bold">Verified Profile</text>
  <rect x="150" y="235" width="160" height="8" rx="4" fill="#64748b"/>
  <rect x="170" y="255" width="120" height="8" rx="4" fill="#475569"/>

  <!-- Fake Clone User Card with Alert -->
  <rect x="440" y="100" width="260" height="190" rx="16" fill="#1f1124" stroke="#ef4444" stroke-width="3"/>
  <circle cx="570" cy="150" r="30" fill="#ef4444"/>
  <text x="570" y="160" text-anchor="middle" fill="#ffffff" font-family="Arial" font-size="28" font-weight="bold">!</text>
  <text x="570" y="210" text-anchor="middle" fill="#fca5a5" font-family="Arial" font-size="16" font-weight="bold">Fake Clone Account</text>
  <rect x="490" y="235" width="160" height="8" rx="4" fill="#64748b"/>
  <rect x="510" y="255" width="120" height="8" rx="4" fill="#475569"/>
  <!-- VS or Warning icon in middle -->
  <circle cx="400" cy="195" r="28" fill="#f59e0b"/>
  <path d="M400 180v20m0 10v2" stroke="#111827" stroke-width="6" stroke-linecap="round"/>

  <text x="60" y="55" fill="#f87171" font-family="Inter, Arial, sans-serif" font-size="24" font-weight="800" letter-spacing="1">FAKE ACCOUNTS &amp; IDENTITY THEFT</text>
</svg>
